<svg width="233" height="107" viewBox="0 0 233 107" fill="none" xmlns="http://www.w3.org/2000/svg">
<path d="M25.9999 66L24.9221 67.746L23.108 70.6848L17.9381 79.0601L17.3172 80.066L12.2493 88.2759L8.66021 94.0903L3.49206 102.463L0.999878 106.5H22.2156H25.7643H33.5596H37.1083H54.9999L58.3285 101.152L60.1524 98.2222L62.0523 95.1698L71.645 79.7586L72.8733 77.7853L74.6967 74.8559L79.4697 67.1878L81.1502 64.488L85.4999 57.5L90.4123 65.3599L92.1527 68.1446L98.9505 79.021L103 85.5H109.887H111L112.356 87.6901L118.399 97.4529L124 106.5H128.5L128.943 105.804L130.914 102.713L132.779 99.7872L145.691 79.5328L147.542 76.6302L154 66.5L167.725 86.1078L174.179 95.3272L176.278 98.3264L182 106.5H185.207H188.756H211.775H215.323H223.119H226.667H232L228.577 101.042L226.953 98.4529L226.744 98.119L224.868 95.1279L215.364 79.973L213.965 77.7418L212.133 74.8208L207.335 67.1695L205.653 64.4877L201.143 57.2956L197.543 51.5555L196.2 49.4144L195 47.5H194.267H189.213H186L185.841 47.2535L174.643 29.8965L171.375 24.8314L171.034 24.3034L166.077 16.6196L158.086 4.23328L156.113 1.17575L156 0.999999H147.735H139.06H138L137.382 1.99093L136.247 3.81247L134.183 7.12465L128.956 15.5117L128.42 16.372L127.157 18.3982L120.824 28.5619L119.939 29.9811L116.5 35.5L111.916 28.144L101.066 10.7336L99.5862 8.35948L97.3602 4.78755L94.9999 0.999999H92H83.9999L82.9246 2.74736L82.9169 2.75984L81.8493 4.49472L79.4025 8.47079L72.4633 19.7469L71.989 20.5177L60.6307 38.9749L57.4562 44.1334L56.5439 45.616L52.2797 52.5453L49.1498 57.6314L44.5487 65.1082L43.9999 66H41.368H34.5201H31.3949H27.929H25.9999Z" fill="#32A623"/>
<path d="M90.6782 1.53168C91.3941 0.815789 92.5548 0.815789 93.2707 1.53168C93.9866 2.24758 93.9866 3.40827 93.2707 4.12417C92.5548 4.84006 91.3941 4.84006 90.6782 4.12417C89.9623 3.40827 89.9623 2.24758 90.6782 1.53168Z" fill="#32A623"/>
<path d="M75.0359 22.359C74.32 23.0749 73.1593 23.0749 72.4434 22.359C71.9451 21.8608 71.7936 21.147 71.989 20.5177C72.0743 20.2429 72.2258 19.9842 72.4434 19.7666C72.45 19.7599 72.4566 19.7534 72.4633 19.7469C73.1807 19.0507 74.3266 19.0573 75.0359 19.7666C75.7518 20.4825 75.7518 21.6431 75.0359 22.359Z" fill="#32A623"/>
<path d="M82.3812 29.7044C81.6653 30.4203 80.5047 30.4203 79.7888 29.7044C79.0729 28.9885 79.0729 27.8278 79.7888 27.1119C80.5047 26.396 81.6653 26.396 82.3812 27.1119C83.0971 27.8278 83.0971 28.9885 82.3812 29.7044Z" fill="#32A623"/>
<path d="M93.2707 27.1119C93.9866 27.8278 93.9866 28.9885 93.2707 29.7044C92.5548 30.4203 91.3941 30.4203 90.6782 29.7044C89.9623 28.9885 89.9623 27.8278 90.6782 27.1119C91.3941 26.396 92.5548 26.396 93.2707 27.1119Z" fill="#32A623"/>
<path d="M100.616 19.7666C101.332 20.4825 101.332 21.6431 100.616 22.359C99.9002 23.0749 98.7395 23.0749 98.0236 22.359C97.3077 21.6431 97.3077 20.4825 98.0236 19.7666C98.7395 19.0507 99.9002 19.0507 100.616 19.7666Z" fill="#32A623"/>
<path d="M135.935 8.87706C136.651 8.16116 137.812 8.16116 138.528 8.87706C139.244 9.59295 139.244 10.7537 138.528 11.4696C137.812 12.1854 136.651 12.1854 135.935 11.4696C135.22 10.7537 135.22 9.59295 135.935 8.87706Z" fill="#32A623"/>
<path d="M131.183 27.1119C131.898 27.8278 131.898 28.9885 131.183 29.7044C130.467 30.4203 129.306 30.4203 128.59 29.7044C127.874 28.9885 127.874 27.8278 128.59 27.1119C129.306 26.396 130.467 26.396 131.183 27.1119Z" fill="#32A623"/>
<path d="M138.528 19.7666C139.244 20.4825 139.244 21.6431 138.528 22.359C137.812 23.0749 136.651 23.0749 135.935 22.359C135.22 21.6431 135.22 20.4825 135.935 19.7666C136.651 19.0507 137.812 19.0507 138.528 19.7666Z" fill="#32A623"/>
<path d="M148.267 11.4696C147.551 10.7537 147.551 9.59296 148.267 8.87707C148.983 8.16117 150.144 8.16117 150.859 8.87707C151.575 9.59296 151.575 10.7537 150.859 11.4696C150.144 12.1854 148.983 12.1854 148.267 11.4696Z" fill="#32A623"/>
<path d="M150.859 22.359C150.144 23.0749 148.983 23.0749 148.267 22.359C147.551 21.6431 147.551 20.4825 148.267 19.7666C148.983 19.0507 150.144 19.0507 150.859 19.7666C151.575 20.4825 151.575 21.6431 150.859 22.359Z" fill="#32A623"/>
<path d="M158.205 29.7044C157.489 30.4203 156.328 30.4203 155.612 29.7044C154.897 28.9885 154.897 27.8278 155.612 27.1119C156.328 26.396 157.489 26.396 158.205 27.1119C158.921 27.8278 158.921 28.9885 158.205 29.7044Z" fill="#32A623"/>
<path d="M169.094 27.1119C169.81 27.8278 169.81 28.9885 169.094 29.7044C168.378 30.4203 167.218 30.4203 166.502 29.7044C165.786 28.9885 165.786 27.8278 166.502 27.1119C167.218 26.396 168.378 26.396 169.094 27.1119Z" fill="#32A623"/>
<path d="M60.1118 46.7889C60.8277 46.073 61.9883 46.073 62.7042 46.7889C63.4201 47.5048 63.4201 48.6655 62.7042 49.3814C61.9883 50.0973 60.8277 50.0973 60.1118 49.3814C59.3959 48.6655 59.3959 47.5048 60.1118 46.7889Z" fill="#32A623"/>
<path d="M55.3589 65.0238C56.0748 65.7397 56.0748 66.9004 55.3589 67.6163C54.643 68.3322 53.4823 68.3322 52.7664 67.6163C52.0505 66.9004 52.0505 65.7397 52.7664 65.0238C53.4823 64.3079 54.643 64.3079 55.3589 65.0238Z" fill="#32A623"/>
<path d="M62.7042 57.6784C63.4201 58.3943 63.4201 59.555 62.7042 60.2709C61.9883 60.9868 60.8277 60.9868 60.1118 60.2709C59.3959 59.555 59.3959 58.3943 60.1118 57.6784C60.8277 56.9625 61.9883 56.9625 62.7042 57.6784Z" fill="#32A623"/>
<path d="M98.0236 46.7889C98.7395 46.073 99.9002 46.073 100.616 46.7889C101.332 47.5048 101.332 48.6655 100.616 49.3814C99.9002 50.0973 98.7395 50.0973 98.0236 49.3814C97.3077 48.6655 97.3077 47.5048 98.0236 46.7889Z" fill="#32A623"/>
<path d="M90.6782 39.4435C91.3941 38.7276 92.5548 38.7276 93.2707 39.4435C93.9866 40.1594 93.9866 41.3201 93.2707 42.036C92.5548 42.7519 91.3941 42.7519 90.6782 42.036C89.9623 41.3201 89.9623 40.1594 90.6782 39.4435Z" fill="#32A623"/>
<path d="M79.7888 42.036C79.0729 41.3201 79.0729 40.1594 79.7888 39.4435C80.5047 38.7276 81.6653 38.7276 82.3812 39.4435C83.0971 40.1594 83.0971 41.3201 82.3812 42.036C81.6653 42.7519 80.5047 42.7519 79.7888 42.036Z" fill="#32A623"/>
<path d="M72.4434 49.3814C71.7275 48.6655 71.7275 47.5048 72.4434 46.7889C73.1593 46.073 74.32 46.073 75.0359 46.7889C75.7518 47.5048 75.7518 48.6655 75.0359 49.3814C74.32 50.0973 73.1593 50.0973 72.4434 49.3814Z" fill="#32A623"/>
<path d="M75.0359 60.2709C74.32 60.9868 73.1593 60.9868 72.4434 60.2709C71.7275 59.555 71.7275 58.3943 72.4434 57.6784C73.1593 56.9625 74.32 56.9625 75.0359 57.6784C75.7518 58.3943 75.7518 59.555 75.0359 60.2709Z" fill="#32A623"/>
<path d="M100.616 57.6784C101.332 58.3943 101.332 59.555 100.616 60.2709C99.9002 60.9868 98.7395 60.9868 98.0236 60.2709C97.3077 59.555 97.3077 58.3943 98.0236 57.6784C98.7395 56.9625 99.9002 56.9625 100.616 57.6784Z" fill="#32A623"/>
<path d="M135.935 46.7889C136.651 46.073 137.812 46.073 138.528 46.7889C139.244 47.5048 139.244 48.6655 138.528 49.3814C137.812 50.0973 136.651 50.0973 135.935 49.3814C135.22 48.6655 135.22 47.5048 135.935 46.7889Z" fill="#32A623"/>
<path d="M128.59 39.4435C129.306 38.7276 130.467 38.7276 131.183 39.4435C131.898 40.1594 131.898 41.3201 131.183 42.036C130.467 42.7519 129.306 42.7519 128.59 42.036C127.874 41.3201 127.874 40.1594 128.59 39.4435Z" fill="#32A623"/>
<path d="M117.701 42.036C116.985 41.3201 116.985 40.1594 117.701 39.4435C118.417 38.7276 119.577 38.7276 120.293 39.4435C121.009 40.1594 121.009 41.3201 120.293 42.036C119.577 42.7519 118.417 42.7519 117.701 42.036Z" fill="#32A623"/>
<path d="M110.355 49.3814C109.639 48.6655 109.639 47.5048 110.355 46.7889C111.071 46.073 112.232 46.073 112.948 46.7889C113.664 47.5048 113.664 48.6655 112.948 49.3814C112.232 50.0973 111.071 50.0973 110.355 49.3814Z" fill="#32A623"/>
<path d="M112.948 60.2709C112.232 60.9868 111.071 60.9868 110.355 60.2709C109.639 59.555 109.639 58.3943 110.355 57.6784C111.071 56.9625 112.232 56.9625 112.948 57.6784C113.664 58.3943 113.664 59.555 112.948 60.2709Z" fill="#32A623"/>
<path d="M120.293 67.6163C119.577 68.3322 118.417 68.3322 117.701 67.6163C116.985 66.9004 116.985 65.7397 117.701 65.0238C118.417 64.3079 119.577 64.3079 120.293 65.0238C121.009 65.7397 121.009 66.9004 120.293 67.6163Z" fill="#32A623"/>
<path d="M131.183 65.0238C131.898 65.7397 131.898 66.9004 131.183 67.6163C130.467 68.3322 129.306 68.3322 128.59 67.6163C127.874 66.9004 127.874 65.7397 128.59 65.0238C129.306 64.3079 130.467 64.3079 131.183 65.0238Z" fill="#32A623"/>
<path d="M138.528 57.6784C139.244 58.3943 139.244 59.555 138.528 60.2709C137.812 60.9868 136.651 60.9868 135.935 60.2709C135.22 59.555 135.22 58.3943 135.935 57.6784C136.651 56.9625 137.812 56.9625 138.528 57.6784Z" fill="#32A623"/>
<path d="M173.847 46.7889C174.563 46.073 175.724 46.073 176.44 46.7889C177.156 47.5048 177.156 48.6655 176.44 49.3814C175.724 50.0973 174.563 50.0973 173.847 49.3814C173.131 48.6655 173.131 47.5048 173.847 46.7889Z" fill="#32A623"/>
<path d="M166.502 39.4435C167.218 38.7276 168.378 38.7276 169.094 39.4435C169.81 40.1594 169.81 41.3201 169.094 42.036C168.378 42.7519 167.218 42.7519 166.502 42.036C165.786 41.3201 165.786 40.1594 166.502 39.4435Z" fill="#32A623"/>
<path d="M155.612 42.036C154.897 41.3201 154.897 40.1594 155.612 39.4435C156.328 38.7276 157.489 38.7276 158.205 39.4435C158.921 40.1594 158.921 41.3201 158.205 42.036C157.489 42.7519 156.328 42.7519 155.612 42.036Z" fill="#32A623"/>
<path d="M148.267 49.3814C147.551 48.6655 147.551 47.5048 148.267 46.7889C148.983 46.073 150.144 46.073 150.859 46.7889C151.575 47.5048 151.575 48.6655 150.859 49.3814C150.144 50.0973 148.983 50.0973 148.267 49.3814Z" fill="#32A623"/>
<path d="M150.859 60.2709C150.144 60.9868 148.983 60.9868 148.267 60.2709C147.551 59.555 147.551 58.3943 148.267 57.6784C148.983 56.9625 150.144 56.9625 150.859 57.6784C151.575 58.3943 151.575 59.555 150.859 60.2709Z" fill="#32A623"/>
<path d="M158.205 67.6163C157.489 68.3322 156.328 68.3322 155.612 67.6163C154.897 66.9004 154.897 65.7397 155.612 65.0238C156.328 64.3079 157.489 64.3079 158.205 65.0238C158.921 65.7397 158.921 66.9004 158.205 67.6163Z" fill="#32A623"/>
<path d="M169.094 65.0238C169.81 65.7397 169.81 66.9004 169.094 67.6163C168.378 68.3322 167.218 68.3322 166.502 67.6163C165.786 66.9004 165.786 65.7397 166.502 65.0238C167.218 64.3079 168.378 64.3079 169.094 65.0238Z" fill="#32A623"/>
<path d="M176.44 57.6784C177.156 58.3943 177.156 59.555 176.44 60.2709C175.724 60.9868 174.563 60.9868 173.847 60.2709C173.131 59.555 173.131 58.3943 173.847 57.6784C174.563 56.9625 175.724 56.9625 176.44 57.6784Z" fill="#32A623"/>
<path d="M188.771 60.2709C188.055 60.9868 186.895 60.9868 186.179 60.2709C185.463 59.555 185.463 58.3943 186.179 57.6784C186.895 56.9625 188.055 56.9625 188.771 57.6784C189.487 58.3943 189.487 59.555 188.771 60.2709Z" fill="#32A623"/>
<path d="M196.117 67.6163C195.401 68.3322 194.24 68.3322 193.524 67.6163C192.808 66.9004 192.808 65.7397 193.524 65.0238C194.24 64.3079 195.401 64.3079 196.117 65.0238C196.833 65.7397 196.833 66.9004 196.117 67.6163Z" fill="#32A623"/>
<path d="M22.1999 84.7008C22.9158 83.9849 24.0765 83.9849 24.7924 84.7008C25.5083 85.4167 25.5083 86.5774 24.7924 87.2933C24.0765 88.0092 22.9158 88.0092 22.1999 87.2933C21.484 86.5774 21.484 85.4167 22.1999 84.7008Z" fill="#32A623"/>
<path d="M6.55751 105.528C5.84161 106.244 4.68092 106.244 3.96503 105.528C3.24913 104.812 3.24913 103.652 3.96503 102.936C4.68092 102.22 5.84162 102.22 6.55752 102.936C7.27341 103.652 7.27341 104.812 6.55751 105.528Z" fill="#32A623"/>
<path d="M17.447 102.936C18.1629 103.652 18.1629 104.812 17.447 105.528C16.7311 106.244 15.5704 106.244 14.8545 105.528C14.1386 104.812 14.1386 103.652 14.8545 102.936C15.5704 102.22 16.7311 102.22 17.447 102.936Z" fill="#32A623"/>
<path d="M24.7924 95.5903C25.5083 96.3062 25.5083 97.4669 24.7924 98.1828C24.0765 98.8986 22.9158 98.8986 22.1999 98.1828C21.484 97.4669 21.484 96.3061 22.1999 95.5903C22.9158 94.8744 24.0765 94.8744 24.7924 95.5903Z" fill="#32A623"/>
<path d="M60.1118 84.7008C60.8277 83.9849 61.9883 83.9849 62.7042 84.7008C63.4201 85.4167 63.4201 86.5774 62.7042 87.2933C61.9883 88.0092 60.8277 88.0092 60.1118 87.2933C59.3959 86.5774 59.3959 85.4167 60.1118 84.7008Z" fill="#32A623"/>
<path d="M52.7664 77.3554C53.4823 76.6395 54.643 76.6395 55.3589 77.3554C56.0748 78.0713 56.0748 79.232 55.3589 79.9479C54.643 80.6638 53.4823 80.6638 52.7664 79.9479C52.0505 79.232 52.0505 78.0713 52.7664 77.3554Z" fill="#32A623"/>
<path d="M41.8769 79.9479C41.161 79.232 41.161 78.0713 41.8769 77.3554C42.5928 76.6395 43.7535 76.6395 44.4694 77.3554C45.1853 78.0713 45.1853 79.232 44.4694 79.9479C43.7535 80.6638 42.5928 80.6638 41.8769 79.9479Z" fill="#32A623"/>
<path d="M34.5315 87.2933C33.8156 86.5774 33.8156 85.4167 34.5315 84.7008C35.2474 83.9849 36.4081 83.9849 37.124 84.7008C37.8399 85.4167 37.8399 86.5774 37.124 87.2933C36.4081 88.0092 35.2474 88.0092 34.5315 87.2933Z" fill="#32A623"/>
<path d="M37.124 98.1827C36.4081 98.8986 35.2474 98.8986 34.5315 98.1827C33.8156 97.4668 33.8156 96.3061 34.5315 95.5903C35.2474 94.8744 36.4081 94.8744 37.124 95.5903C37.8399 96.3061 37.8399 97.4668 37.124 98.1827Z" fill="#32A623"/>
<path d="M44.4694 105.528C43.7535 106.244 42.5928 106.244 41.8769 105.528C41.161 104.812 41.161 103.652 41.8769 102.936C42.5928 102.22 43.7535 102.22 44.4694 102.936C45.1853 103.652 45.1853 104.812 44.4694 105.528Z" fill="#32A623"/>
<path d="M55.3589 102.936C56.0748 103.652 56.0748 104.812 55.3589 105.528C54.643 106.244 53.4823 106.244 52.7664 105.528C52.0505 104.812 52.0505 103.652 52.7664 102.936C53.4823 102.22 54.643 102.22 55.3589 102.936Z" fill="#32A623"/>
<path d="M135.935 84.7008C136.651 83.9849 137.812 83.9849 138.528 84.7008C139.244 85.4167 139.244 86.5774 138.528 87.2933C137.812 88.0092 136.651 88.0092 135.935 87.2933C135.22 86.5774 135.22 85.4167 135.935 84.7008Z" fill="#32A623"/>
<path d="M128.59 77.3554C129.306 76.6395 130.467 76.6395 131.183 77.3554C131.898 78.0713 131.898 79.232 131.183 79.9479C130.467 80.6638 129.306 80.6638 128.59 79.9479C127.874 79.232 127.874 78.0713 128.59 77.3554Z" fill="#32A623"/>
<path d="M117.701 79.9479C116.985 79.232 116.985 78.0713 117.701 77.3554C118.417 76.6395 119.577 76.6395 120.293 77.3554C121.009 78.0713 121.009 79.232 120.293 79.9479C119.577 80.6638 118.417 80.6638 117.701 79.9479Z" fill="#32A623"/>
<path d="M173.847 84.7008C174.563 83.9849 175.724 83.9849 176.44 84.7008C177.156 85.4167 177.156 86.5774 176.44 87.2933C175.724 88.0092 174.563 88.0092 173.847 87.2933C173.131 86.5774 173.131 85.4167 173.847 84.7008Z" fill="#32A623"/>
<path d="M166.502 77.3554C167.218 76.6395 168.378 76.6395 169.094 77.3554C169.81 78.0713 169.81 79.232 169.094 79.9479C168.378 80.6638 167.218 80.6638 166.502 79.9479C165.786 79.232 165.786 78.0713 166.502 77.3554Z" fill="#32A623"/>
<path d="M211.759 84.7008C212.475 83.9849 213.636 83.9849 214.352 84.7008C215.067 85.4167 215.067 86.5774 214.352 87.2933C213.636 88.0092 212.475 88.0092 211.759 87.2933C211.043 86.5774 211.043 85.4167 211.759 84.7008Z" fill="#32A623"/>
<path d="M204.414 77.3554C205.13 76.6395 206.29 76.6395 207.006 77.3554C207.722 78.0713 207.722 79.232 207.006 79.9479C206.29 80.6638 205.13 80.6638 204.414 79.9479C203.698 79.232 203.698 78.0713 204.414 77.3554Z" fill="#32A623"/>
<path d="M193.524 79.9479C192.808 79.232 192.808 78.0713 193.524 77.3554C194.24 76.6395 195.401 76.6395 196.117 77.3554C196.833 78.0713 196.833 79.232 196.117 79.9479C195.401 80.6638 194.24 80.6638 193.524 79.9479Z" fill="#32A623"/>
<path d="M186.179 87.2933C185.463 86.5774 185.463 85.4167 186.179 84.7008C186.895 83.9849 188.055 83.9849 188.771 84.7008C189.487 85.4167 189.487 86.5774 188.771 87.2933C188.055 88.0092 186.895 88.0092 186.179 87.2933Z" fill="#32A623"/>
<path d="M188.771 98.1827C188.055 98.8986 186.895 98.8986 186.179 98.1827C185.463 97.4668 185.463 96.3061 186.179 95.5903C186.895 94.8744 188.055 94.8744 188.771 95.5903C189.487 96.3061 189.487 97.4668 188.771 98.1827Z" fill="#32A623"/>
<path d="M196.117 105.528C195.401 106.244 194.24 106.244 193.524 105.528C192.808 104.812 192.808 103.652 193.524 102.936C194.24 102.22 195.401 102.22 196.117 102.936C196.833 103.652 196.833 104.812 196.117 105.528Z" fill="#32A623"/>
<path d="M207.006 102.936C207.722 103.652 207.722 104.812 207.006 105.528C206.29 106.244 205.13 106.244 204.414 105.528C203.698 104.812 203.698 103.652 204.414 102.936C205.13 102.22 206.29 102.22 207.006 102.936Z" fill="#32A623"/>
<path d="M214.352 95.5903C215.067 96.3062 215.067 97.4669 214.352 98.1828C213.636 98.8986 212.475 98.8986 211.759 98.1828C211.043 97.4669 211.043 96.3061 211.759 95.5903C212.475 94.8744 213.636 94.8744 214.352 95.5903Z" fill="#32A623"/>
<path d="M91.2142 15.6864L88.9062 13.31M91.2142 15.6864L88.8378 17.9945M91.2142 15.6864L86.4613 20.3026M91.2142 15.6864L86.5981 10.9335M86.5981 10.9335L88.9062 13.31M86.5981 10.9335L84.2217 13.2416M86.5981 10.9335L81.8452 15.5497M88.9062 13.31L95.6472 6.50062M95.6472 6.50062L98.0236 8.87706M95.6472 6.50062L93.2707 4.12417M95.6472 6.50062L97.3602 4.78755M98.0236 8.87706C97.3077 9.59295 97.3077 10.7537 98.0236 11.4696C98.7395 12.1854 99.9002 12.1854 100.616 11.4696C100.83 11.2559 100.98 11.0027 101.066 10.7336M98.0236 8.87706C98.4495 8.45117 99.0328 8.27865 99.5862 8.35948M93.2707 4.12417C93.9866 3.40827 93.9866 2.24758 93.2707 1.53168C92.5548 0.815789 91.3941 0.815789 90.6782 1.53168C89.9623 2.24758 89.9623 3.40827 90.6782 4.12417C91.3941 4.84006 92.5548 4.84006 93.2707 4.12417ZM81.8452 15.5497L84.2217 13.2416M81.8452 15.5497L84.1533 17.9261M81.8452 15.5497L86.4613 20.3026M84.2217 13.2416L79.4025 8.47079M86.4613 20.3026L84.1533 17.9261M86.4613 20.3026L88.8378 17.9945M84.1533 17.9261L77.4123 24.7355M73.2458 28.902L70.8694 26.5255L68.6472 28.7477M73.2458 28.902L75.6223 31.2784L73.4001 33.5005M73.2458 28.902L71.0237 31.1241M73.2458 28.902L77.4123 24.7355M77.4123 24.7355L75.0359 22.359M77.4123 24.7355L79.7888 27.1119M75.0359 22.359C74.32 23.0749 73.1593 23.0749 72.4434 22.359C71.9451 21.8608 71.7936 21.147 71.989 20.5177M75.0359 22.359C75.7518 21.6431 75.7518 20.4825 75.0359 19.7666C74.3266 19.0573 73.1807 19.0507 72.4633 19.7469M79.7888 27.1119C79.0729 27.8278 79.0729 28.9885 79.7888 29.7044C80.5047 30.4203 81.6653 30.4203 82.3812 29.7044C83.0971 28.9885 83.0971 27.8278 82.3812 27.1119C81.6653 26.396 80.5047 26.396 79.7888 27.1119ZM88.8378 17.9945L95.6472 24.7355M99.8137 28.902L97.4372 31.2784L99.6593 33.5006M99.8137 28.902L102.19 26.5255L104.412 28.7477M99.8137 28.902L102.036 31.1241M99.8137 28.902L95.6472 24.7355M95.6472 24.7355L93.2707 27.1119M95.6472 24.7355L98.0236 22.359M93.2707 27.1119C93.9866 27.8278 93.9866 28.9885 93.2707 29.7044C92.5548 30.4203 91.3941 30.4203 90.6782 29.7044C89.9623 28.9885 89.9623 27.8278 90.6782 27.1119C91.3941 26.396 92.5548 26.396 93.2707 27.1119ZM98.0236 22.359C98.7395 23.0749 99.9002 23.0749 100.616 22.359C101.332 21.6431 101.332 20.4825 100.616 19.7666C99.9002 19.0507 98.7395 19.0507 98.0236 19.7666C97.3077 20.4825 97.3077 21.6431 98.0236 22.359ZM137.726 2.33411L140.102 4.71056L142.324 2.48843M137.726 2.33411L136.247 3.81247M137.726 2.33411L137.382 1.99093M137.726 2.33411L139.06 0.999999M135.935 8.87706C136.651 8.16116 137.812 8.16116 138.528 8.87706C139.244 9.59295 139.244 10.7537 138.528 11.4696C137.812 12.1854 136.651 12.1854 135.935 11.4696C135.22 10.7537 135.22 9.59295 135.935 8.87706ZM135.935 8.87706L134.183 7.12465M111.158 28.902L108.781 26.5255L106.559 28.7477M111.158 28.902L113.534 31.2784L111.312 33.5005M111.158 28.902L108.936 31.1241M111.158 28.902L111.916 28.144M137.726 28.902L135.349 31.2784L137.571 33.5006M137.726 28.902L140.102 26.5255L142.324 28.7477M137.726 28.902L139.948 31.1241M137.726 28.902L133.559 24.7355M133.559 24.7355L131.183 27.1119M133.559 24.7355L135.935 22.359M133.559 24.7355L127.157 18.3982M131.183 27.1119C131.898 27.8278 131.898 28.9885 131.183 29.7044C130.467 30.4203 129.306 30.4203 128.59 29.7044C127.874 28.9885 127.874 27.8278 128.59 27.1119C129.306 26.396 130.467 26.396 131.183 27.1119ZM135.935 22.359C136.651 23.0749 137.812 23.0749 138.528 22.359C139.244 21.6431 139.244 20.4825 138.528 19.7666C137.812 19.0507 136.651 19.0507 135.935 19.7666C135.22 20.4825 135.22 21.6431 135.935 22.359ZM157.669 15.5497L160.045 13.2416M157.669 15.5497L159.977 17.9261M157.669 15.5497L162.422 10.9335L160.045 13.2416M157.669 15.5497L162.285 20.3026M160.045 13.2416L153.236 6.50062M149.069 2.33412L146.693 4.71057L144.471 2.48843M149.069 2.33412L153.236 6.50062M149.069 2.33412L147.735 0.999999M153.236 6.50062L155.612 4.12418M153.236 6.50062L150.859 8.87707M155.612 4.12418C154.897 3.40828 154.897 2.24758 155.612 1.53168C155.763 1.38155 155.932 1.26291 156.113 1.17575M155.612 4.12418C156.29 4.80164 157.366 4.83801 158.086 4.23328M150.859 8.87707C150.144 8.16117 148.983 8.16117 148.267 8.87707C147.551 9.59296 147.551 10.7537 148.267 11.4696C148.983 12.1854 150.144 12.1854 150.859 11.4696C151.575 10.7537 151.575 9.59296 150.859 8.87707ZM158.205 4.12418C158.166 4.16261 158.127 4.19898 158.086 4.23328M162.285 20.3026L159.977 17.9261M162.285 20.3026L164.661 17.9945M162.285 20.3026L166.077 16.6196M159.977 17.9261L153.236 24.7355M149.069 28.902L146.693 26.5255L144.471 28.7477M149.069 28.902L151.446 31.2784L149.224 33.5005M149.069 28.902L146.847 31.1241M149.069 28.902L153.236 24.7355M153.236 24.7355L150.859 22.359M153.236 24.7355L155.612 27.1119M150.859 22.359C150.144 23.0749 148.983 23.0749 148.267 22.359C147.551 21.6431 147.551 20.4825 148.267 19.7666C148.983 19.0507 150.144 19.0507 150.859 19.7666C151.575 20.4825 151.575 21.6431 150.859 22.359ZM155.612 27.1119C154.897 27.8278 154.897 28.9885 155.612 29.7044C156.328 30.4203 157.489 30.4203 158.205 29.7044C158.921 28.9885 158.921 27.8278 158.205 27.1119C157.489 26.396 156.328 26.396 155.612 27.1119ZM164.661 17.9945L166.077 16.6196M164.661 17.9945L171.034 24.3034M175.483 33.5006L173.261 31.2784L174.643 29.8965M169.094 27.1119C169.81 27.8278 169.81 28.9885 169.094 29.7044C168.378 30.4203 167.218 30.4203 166.502 29.7044C165.786 28.9885 165.786 27.8278 166.502 27.1119C167.218 26.396 168.378 26.396 169.094 27.1119ZM169.094 27.1119L171.375 24.8314M28.5885 66.6595L27.929 66M23.8356 71.4124L23.108 70.6848M26.2121 69.036L24.9221 67.746M53.3024 53.5983L50.9259 55.9064M53.3024 53.5983L49.1498 57.6314M53.3024 53.5983L52.2797 52.5453M61.9018 40.246L64.2782 42.6224L66.5004 40.4003M61.9018 40.246L64.1239 38.0238M61.9018 40.246L57.7353 44.4125M61.9018 40.246L60.6307 38.9749M57.7353 44.4125L60.1118 46.7889M57.7353 44.4125L56.5439 45.616M57.7353 44.4125L57.4562 44.1334M60.1118 46.7889C60.8277 46.073 61.9883 46.073 62.7042 46.7889C63.4201 47.5048 63.4201 48.6655 62.7042 49.3814C61.9883 50.0973 60.8277 50.0973 60.1118 49.3814C59.3959 48.6655 59.3959 47.5048 60.1118 46.7889ZM35.334 66.8138L37.7104 69.1903L35.4883 71.4124M35.334 66.8138L33.1118 69.036M35.334 66.8138L34.5201 66M30.7354 66.6595L31.3949 66M50.9259 55.9064L57.7353 62.6473M50.9259 55.9064L49.1498 57.6314M61.9018 66.8138L59.5254 69.1903L61.7475 71.4124M61.9018 66.8138L64.2782 64.4374L66.5004 66.6595M61.9018 66.8138L64.1239 69.036M61.9018 66.8138L57.7353 62.6473M57.7353 62.6473L55.3589 65.0238M57.7353 62.6473L60.1118 60.2709M55.3589 65.0238C56.0748 65.7397 56.0748 66.9004 55.3589 67.6163C54.643 68.3322 53.4823 68.3322 52.7664 67.6163C52.0505 66.9004 52.0505 65.7397 52.7664 65.0238C53.4823 64.3079 54.643 64.3079 55.3589 65.0238ZM60.1118 60.2709C60.8277 60.9868 61.9883 60.9868 62.7042 60.2709C63.4201 59.555 63.4201 58.3943 62.7042 57.6784C61.9883 56.9625 60.8277 56.9625 60.1118 57.6784C59.3959 58.3943 59.3959 59.555 60.1118 60.2709ZM91.2142 53.5983L88.9062 51.2218M91.2142 53.5983L88.8378 55.9064M91.2142 53.5983L86.4613 58.2144M91.2142 53.5983L86.5981 48.8454M86.5981 48.8454L88.9062 51.2218M86.5981 48.8454L84.2217 51.1535M86.5981 48.8454L81.8452 53.4615M88.9062 51.2218L95.6472 44.4125M99.8137 40.246L102.19 42.6224L104.412 40.4003M99.8137 40.246L97.4372 37.8695L99.6593 35.6474M99.8137 40.246L102.036 38.0238M99.8137 40.246L95.6472 44.4125M95.6472 44.4125L98.0236 46.7889M95.6472 44.4125L93.2707 42.036M98.0236 46.7889C98.7395 46.073 99.9002 46.073 100.616 46.7889C101.332 47.5048 101.332 48.6655 100.616 49.3814C99.9002 50.0973 98.7395 50.0973 98.0236 49.3814C97.3077 48.6655 97.3077 47.5048 98.0236 46.7889ZM93.2707 42.036C93.9866 41.3201 93.9866 40.1594 93.2707 39.4435C92.5548 38.7276 91.3941 38.7276 90.6782 39.4435C89.9623 40.1594 89.9623 41.3201 90.6782 42.036C91.3941 42.7519 92.5548 42.7519 93.2707 42.036ZM81.8452 53.4615L84.2217 51.1535M81.8452 53.4615L84.1533 55.838M81.8452 53.4615L86.4613 58.2144M84.2217 51.1535L77.4123 44.4125M73.2458 40.246L75.6223 37.8695L73.4001 35.6474M73.2458 40.246L70.8694 42.6224L68.6472 40.4003M73.2458 40.246L71.0237 38.0238M73.2458 40.246L77.4123 44.4125M77.4123 44.4125L79.7888 42.036M77.4123 44.4125L75.0359 46.7889M79.7888 42.036C79.0729 41.3201 79.0729 40.1594 79.7888 39.4435C80.5047 38.7276 81.6653 38.7276 82.3812 39.4435C83.0971 40.1594 83.0971 41.3201 82.3812 42.036C81.6653 42.7519 80.5047 42.7519 79.7888 42.036ZM75.0359 46.7889C74.32 46.073 73.1593 46.073 72.4434 46.7889C71.7275 47.5048 71.7275 48.6655 72.4434 49.3814C73.1593 50.0973 74.32 50.0973 75.0359 49.3814C75.7518 48.6655 75.7518 47.5048 75.0359 46.7889ZM86.4613 58.2144L84.1533 55.838M86.4613 58.2144L88.8378 55.9064M84.1533 55.838L77.4123 62.6473M73.2458 66.8138L70.8694 64.4374L68.6472 66.6595M73.2458 66.8138L75.6223 69.1903L73.4001 71.4124M73.2458 66.8138L71.0237 69.036M73.2458 66.8138L77.4123 62.6473M77.4123 62.6473L75.0359 60.2709M77.4123 62.6473L79.7888 65.0238M75.0359 60.2709C74.32 60.9868 73.1593 60.9868 72.4434 60.2709C71.7275 59.555 71.7275 58.3943 72.4434 57.6784C73.1593 56.9625 74.32 56.9625 75.0359 57.6784C75.7518 58.3943 75.7518 59.555 75.0359 60.2709ZM79.7888 65.0238C80.1633 64.6493 80.6596 64.4707 81.1502 64.488M79.7888 65.0238C79.2028 65.6097 79.0964 66.4937 79.4697 67.1878M79.7888 67.6163C79.6588 67.4863 79.5525 67.3417 79.4697 67.1878M88.8378 55.9064L95.6472 62.6473M99.8137 66.8138L97.4372 69.1903L99.6593 71.4124M99.8137 66.8138L102.19 64.4374L104.412 66.6595M99.8137 66.8138L102.036 69.036M99.8137 66.8138L95.6472 62.6473M95.6472 62.6473L93.2707 65.0238M95.6472 62.6473L98.0236 60.2709M93.2707 65.0238C93.9866 65.7397 93.9866 66.9004 93.2707 67.6163C92.9582 67.9288 92.5608 68.1049 92.1527 68.1446M93.2707 65.0238C92.5548 64.3079 91.3941 64.3079 90.6782 65.0238C90.5746 65.1274 90.486 65.2404 90.4123 65.3599M98.0236 60.2709C98.7395 60.9868 99.9002 60.9868 100.616 60.2709C101.332 59.555 101.332 58.3943 100.616 57.6784C99.9002 56.9625 98.7395 56.9625 98.0236 57.6784C97.3077 58.3943 97.3077 59.555 98.0236 60.2709ZM129.126 53.5983L126.818 51.2218M129.126 53.5983L126.75 55.9064M129.126 53.5983L124.373 58.2144M129.126 53.5983L124.51 48.8454M124.51 48.8454L126.818 51.2218M124.51 48.8454L122.134 51.1535M124.51 48.8454L119.757 53.4615M126.818 51.2218L133.559 44.4125M137.726 40.246L140.102 42.6224L142.324 40.4003M137.726 40.246L135.349 37.8695L137.571 35.6474M137.726 40.246L139.948 38.0238M137.726 40.246L133.559 44.4125M133.559 44.4125L135.935 46.7889M133.559 44.4125L131.183 42.036M135.935 46.7889C136.651 46.073 137.812 46.073 138.528 46.7889C139.244 47.5048 139.244 48.6655 138.528 49.3814C137.812 50.0973 136.651 50.0973 135.935 49.3814C135.22 48.6655 135.22 47.5048 135.935 46.7889ZM131.183 42.036C131.898 41.3201 131.898 40.1594 131.183 39.4435C130.467 38.7276 129.306 38.7276 128.59 39.4435C127.874 40.1594 127.874 41.3201 128.59 42.036C129.306 42.7519 130.467 42.7519 131.183 42.036ZM119.757 53.4615L122.134 51.1535M119.757 53.4615L122.065 55.838M119.757 53.4615L124.373 58.2144M122.134 51.1535L115.324 44.4125M111.158 40.246L113.534 37.8695L111.312 35.6474M111.158 40.246L108.781 42.6224L106.559 40.4003M111.158 40.246L108.936 38.0238M111.158 40.246L115.324 44.4125M115.324 44.4125L117.701 42.036M115.324 44.4125L112.948 46.7889M117.701 42.036C116.985 41.3201 116.985 40.1594 117.701 39.4435C118.417 38.7276 119.577 38.7276 120.293 39.4435C121.009 40.1594 121.009 41.3201 120.293 42.036C119.577 42.7519 118.417 42.7519 117.701 42.036ZM112.948 46.7889C112.232 46.073 111.071 46.073 110.355 46.7889C109.639 47.5048 109.639 48.6655 110.355 49.3814C111.071 50.0973 112.232 50.0973 112.948 49.3814C113.664 48.6655 113.664 47.5048 112.948 46.7889ZM124.373 58.2144L122.065 55.838M124.373 58.2144L126.75 55.9064M122.065 55.838L115.324 62.6473M111.158 66.8138L108.781 64.4374L106.559 66.6595M111.158 66.8138L113.534 69.1903L111.312 71.4124M111.158 66.8138L108.936 69.036M111.158 66.8138L115.324 62.6473M115.324 62.6473L112.948 60.2709M115.324 62.6473L117.701 65.0238M112.948 60.2709C112.232 60.9868 111.071 60.9868 110.355 60.2709C109.639 59.555 109.639 58.3943 110.355 57.6784C111.071 56.9625 112.232 56.9625 112.948 57.6784C113.664 58.3943 113.664 59.555 112.948 60.2709ZM117.701 65.0238C116.985 65.7397 116.985 66.9004 117.701 67.6163C118.417 68.3322 119.577 68.3322 120.293 67.6163C121.009 66.9004 121.009 65.7397 120.293 65.0238C119.577 64.3079 118.417 64.3079 117.701 65.0238ZM126.75 55.9064L133.559 62.6473M137.726 66.8138L135.349 69.1903L137.571 71.4124M137.726 66.8138L140.102 64.4374L142.324 66.6595M137.726 66.8138L139.948 69.036M137.726 66.8138L133.559 62.6473M133.559 62.6473L131.183 65.0238M133.559 62.6473L135.935 60.2709M131.183 65.0238C131.898 65.7397 131.898 66.9004 131.183 67.6163C130.467 68.3322 129.306 68.3322 128.59 67.6163C127.874 66.9004 127.874 65.7397 128.59 65.0238C129.306 64.3079 130.467 64.3079 131.183 65.0238ZM135.935 60.2709C136.651 60.9868 137.812 60.9868 138.528 60.2709C139.244 59.555 139.244 58.3943 138.528 57.6784C137.812 56.9625 136.651 56.9625 135.935 57.6784C135.22 58.3943 135.22 59.555 135.935 60.2709ZM167.038 53.5983L164.73 51.2218M167.038 53.5983L164.661 55.9064M167.038 53.5983L162.285 58.2144M167.038 53.5983L162.422 48.8454M162.422 48.8454L164.73 51.2218M162.422 48.8454L160.045 51.1535M162.422 48.8454L157.669 53.4615M164.73 51.2218L171.471 44.4125M175.637 40.246L178.014 42.6224L180.236 40.4003M175.637 40.246L173.261 37.8695L175.483 35.6474M175.637 40.246L177.859 38.0238M175.637 40.246L171.471 44.4125M171.471 44.4125L173.847 46.7889M171.471 44.4125L169.094 42.036M173.847 46.7889C174.563 46.073 175.724 46.073 176.44 46.7889C177.156 47.5048 177.156 48.6655 176.44 49.3814C175.724 50.0973 174.563 50.0973 173.847 49.3814C173.131 48.6655 173.131 47.5048 173.847 46.7889ZM169.094 42.036C169.81 41.3201 169.81 40.1594 169.094 39.4435C168.378 38.7276 167.218 38.7276 166.502 39.4435C165.786 40.1594 165.786 41.3201 166.502 42.036C167.218 42.7519 168.378 42.7519 169.094 42.036ZM157.669 53.4615L160.045 51.1535M157.669 53.4615L159.977 55.838M157.669 53.4615L162.285 58.2144M160.045 51.1535L153.236 44.4125M149.069 40.246L151.446 37.8695L149.224 35.6474M149.069 40.246L146.693 42.6224L144.471 40.4003M149.069 40.246L146.847 38.0238M149.069 40.246L153.236 44.4125M153.236 44.4125L155.612 42.036M153.236 44.4125L150.859 46.7889M155.612 42.036C154.897 41.3201 154.897 40.1594 155.612 39.4435C156.328 38.7276 157.489 38.7276 158.205 39.4435C158.921 40.1594 158.921 41.3201 158.205 42.036C157.489 42.7519 156.328 42.7519 155.612 42.036ZM150.859 46.7889C150.144 46.073 148.983 46.073 148.267 46.7889C147.551 47.5048 147.551 48.6655 148.267 49.3814C148.983 50.0973 150.144 50.0973 150.859 49.3814C151.575 48.6655 151.575 47.5048 150.859 46.7889ZM162.285 58.2144L159.977 55.838M162.285 58.2144L164.661 55.9064M159.977 55.838L153.236 62.6473M149.069 66.8138L146.693 64.4374L144.471 66.6595M149.069 66.8138L151.446 69.1903L149.224 71.4124M149.069 66.8138L146.847 69.036M149.069 66.8138L153.236 62.6473M153.236 62.6473L150.859 60.2709M153.236 62.6473L155.612 65.0238M150.859 60.2709C150.144 60.9868 148.983 60.9868 148.267 60.2709C147.551 59.555 147.551 58.3943 148.267 57.6784C148.983 56.9625 150.144 56.9625 150.859 57.6784C151.575 58.3943 151.575 59.555 150.859 60.2709ZM155.612 65.0238C154.897 65.7397 154.897 66.9004 155.612 67.6163C156.328 68.3322 157.489 68.3322 158.205 67.6163C158.921 66.9004 158.921 65.7397 158.205 65.0238C157.489 64.3079 156.328 64.3079 155.612 65.0238ZM164.661 55.9064L171.471 62.6473M175.637 66.8138L173.261 69.1903L175.483 71.4124M175.637 66.8138L178.014 64.4374L180.236 66.6595M175.637 66.8138L177.859 69.036M175.637 66.8138L171.471 62.6473M171.471 62.6473L169.094 65.0238M171.471 62.6473L173.847 60.2709M169.094 65.0238C169.81 65.7397 169.81 66.9004 169.094 67.6163C168.378 68.3322 167.218 68.3322 166.502 67.6163C165.786 66.9004 165.786 65.7397 166.502 65.0238C167.218 64.3079 168.378 64.3079 169.094 65.0238ZM173.847 60.2709C174.563 60.9868 175.724 60.9868 176.44 60.2709C177.156 59.555 177.156 58.3943 176.44 57.6784C175.724 56.9625 174.563 56.9625 173.847 57.6784C173.131 58.3943 173.131 59.555 173.847 60.2709ZM195.581 53.4615L197.889 55.838M195.581 53.4615L200.197 58.2144M195.581 53.4615L197.543 51.5555M200.197 58.2144L197.889 55.838M200.197 58.2144L201.143 57.2956M197.889 55.838L191.148 62.6473M186.981 66.8138L184.605 64.4374L182.383 66.6595M186.981 66.8138L189.358 69.1903L187.136 71.4124M186.981 66.8138L184.759 69.036M186.981 66.8138L191.148 62.6473M191.148 62.6473L188.771 60.2709M191.148 62.6473L193.524 65.0238M188.771 60.2709C188.055 60.9868 186.895 60.9868 186.179 60.2709C185.463 59.555 185.463 58.3943 186.179 57.6784C186.895 56.9625 188.055 56.9625 188.771 57.6784C189.487 58.3943 189.487 59.555 188.771 60.2709ZM193.524 65.0238C192.808 65.7397 192.808 66.9004 193.524 67.6163C194.24 68.3322 195.401 68.3322 196.117 67.6163C196.833 66.9004 196.833 65.7397 196.117 65.0238C195.401 64.3079 194.24 64.3079 193.524 65.0238ZM15.3905 91.5101L13.0825 89.1337M15.3905 91.5101L13.0141 93.8182M15.3905 91.5101L10.6376 96.1263M15.3905 91.5101L12.2493 88.2759M13.0825 89.1337L19.8234 82.3243M13.0825 89.1337L12.2493 88.2759M23.9899 78.1578L26.3664 80.5343L28.5885 78.3121M23.9899 78.1578L21.6135 75.7814L23.8356 73.5592M23.9899 78.1578L26.2121 75.9357M23.9899 78.1578L19.8234 82.3243M19.8234 82.3243L22.1999 84.7008M19.8234 82.3243L17.447 79.9479M22.1999 84.7008C22.9158 83.9849 24.0765 83.9849 24.7924 84.7008C25.5083 85.4167 25.5083 86.5774 24.7924 87.2933C24.0765 88.0092 22.9158 88.0092 22.1999 87.2933C21.484 86.5774 21.484 85.4167 22.1999 84.7008ZM17.447 79.9479C17.4052 79.9897 17.3618 80.0291 17.3172 80.066M17.447 79.9479C17.7004 79.6945 17.864 79.3855 17.9381 79.0601M10.6376 96.1263L13.0141 93.8182M10.6376 96.1263L8.66021 94.0903M3.96503 102.936C3.24913 103.652 3.24913 104.812 3.96503 105.528C4.68092 106.244 5.84161 106.244 6.55751 105.528C7.27341 104.812 7.27341 103.652 6.55752 102.936C5.84162 102.22 4.68092 102.22 3.96503 102.936ZM3.96503 102.936L3.49206 102.463M13.0141 93.8182L19.8234 100.559M23.9899 104.726L26.3664 102.349L28.5885 104.571M23.9899 104.726L19.8234 100.559M23.9899 104.726L22.2156 106.5M23.9899 104.726L25.7643 106.5M19.8234 100.559L17.447 102.936M19.8234 100.559L22.1999 98.1828M17.447 102.936C18.1629 103.652 18.1629 104.812 17.447 105.528C16.7311 106.244 15.5704 106.244 14.8545 105.528C14.1386 104.812 14.1386 103.652 14.8545 102.936C15.5704 102.22 16.7311 102.22 17.447 102.936ZM22.1999 98.1828C22.9158 98.8986 24.0765 98.8986 24.7924 98.1828C25.5083 97.4669 25.5083 96.3062 24.7924 95.5903C24.0765 94.8744 22.9158 94.8744 22.1999 95.5903C21.484 96.3061 21.484 97.4669 22.1999 98.1828ZM53.3024 91.5101L50.9943 89.1337M53.3024 91.5101L50.9259 93.8182M53.3024 91.5101L48.5495 96.1263M53.3024 91.5101L48.6863 86.7572M48.6863 86.7572L50.9943 89.1337M48.6863 86.7572L46.3098 89.0653M48.6863 86.7572L43.9334 91.3734M50.9943 89.1337L57.7353 82.3243M61.9018 78.1578L64.2782 80.5343L66.5004 78.3121M61.9018 78.1578L59.5254 75.7814L61.7475 73.5592M61.9018 78.1578L64.1239 75.9357M61.9018 78.1578L57.7353 82.3243M57.7353 82.3243L60.1118 84.7008M57.7353 82.3243L55.3589 79.9479M60.1118 84.7008C60.8277 83.9849 61.9883 83.9849 62.7042 84.7008C63.4201 85.4167 63.4201 86.5774 62.7042 87.2933C61.9883 88.0092 60.8277 88.0092 60.1118 87.2933C59.3959 86.5774 59.3959 85.4167 60.1118 84.7008ZM55.3589 79.9479C56.0748 79.232 56.0748 78.0713 55.3589 77.3554C54.643 76.6395 53.4823 76.6395 52.7664 77.3554C52.0505 78.0713 52.0505 79.232 52.7664 79.9479C53.4823 80.6638 54.643 80.6638 55.3589 79.9479ZM43.9334 91.3734L46.3098 89.0653M43.9334 91.3734L46.2414 93.7498M43.9334 91.3734L48.5495 96.1263M46.3098 89.0653L39.5004 82.3243M35.3339 78.1578L37.7104 75.7814L35.4883 73.5592M35.3339 78.1578L32.9575 80.5343L30.7354 78.3121M35.3339 78.1578L33.1118 75.9357M35.3339 78.1578L39.5004 82.3243M39.5004 82.3243L41.8769 79.9479M39.5004 82.3243L37.124 84.7008M41.8769 79.9479C41.161 79.232 41.161 78.0713 41.8769 77.3554C42.5928 76.6395 43.7535 76.6395 44.4694 77.3554C45.1853 78.0713 45.1853 79.232 44.4694 79.9479C43.7535 80.6638 42.5928 80.6638 41.8769 79.9479ZM37.124 84.7008C36.4081 83.9849 35.2474 83.9849 34.5315 84.7008C33.8156 85.4167 33.8156 86.5774 34.5315 87.2933C35.2474 88.0092 36.4081 88.0092 37.124 87.2933C37.8399 86.5774 37.8399 85.4167 37.124 84.7008ZM48.5495 96.1263L46.2414 93.7498M48.5495 96.1263L50.9259 93.8182M46.2414 93.7498L39.5005 100.559M35.334 104.726L32.9575 102.349L30.7354 104.571M35.334 104.726L39.5005 100.559M35.334 104.726L33.5596 106.5M35.334 104.726L37.1083 106.5M39.5005 100.559L37.124 98.1827M39.5005 100.559L41.8769 102.936M37.124 98.1827C36.4081 98.8986 35.2474 98.8986 34.5315 98.1827C33.8156 97.4668 33.8156 96.3061 34.5315 95.5903C35.2474 94.8744 36.4081 94.8744 37.124 95.5903C37.8399 96.3061 37.8399 97.4668 37.124 98.1827ZM41.8769 102.936C41.161 103.652 41.161 104.812 41.8769 105.528C42.5928 106.244 43.7535 106.244 44.4694 105.528C45.1853 104.812 45.1853 103.652 44.4694 102.936C43.7535 102.22 42.5928 102.22 41.8769 102.936ZM50.9259 93.8182L57.7353 100.559M57.7353 100.559L55.3589 102.936M57.7353 100.559L60.1118 98.1828M57.7353 100.559L58.3285 101.152M55.3589 102.936C56.0748 103.652 56.0748 104.812 55.3589 105.528C54.643 106.244 53.4823 106.244 52.7664 105.528C52.0505 104.812 52.0505 103.652 52.7664 102.936C53.4823 102.22 54.643 102.22 55.3589 102.936ZM60.1118 98.1828C59.3959 97.4669 59.3959 96.3061 60.1118 95.5903C60.6364 95.0656 61.4 94.9254 62.0523 95.1698M60.1118 98.1828C60.1251 98.1961 60.1387 98.2093 60.1524 98.2222M99.8137 78.1578L102.19 80.5343L104.412 78.3121M99.8137 78.1578L97.4372 75.7814L99.6593 73.5592M99.8137 78.1578L102.036 75.9357M99.8137 78.1578L98.9505 79.021M68.6472 78.3121L70.8694 80.5343L71.645 79.7586M73.4001 73.5592L74.6967 74.8559M71.0237 75.9357L72.8733 77.7853M129.126 91.5101L126.818 89.1337M129.126 91.5101L126.75 93.8182M129.126 91.5101L124.373 96.1263M129.126 91.5101L124.51 86.7572M124.51 86.7572L126.818 89.1337M124.51 86.7572L122.134 89.0653M124.51 86.7572L119.757 91.3734M126.818 89.1337L133.559 82.3243M137.726 78.1578L140.102 80.5343L142.324 78.3121M137.726 78.1578L135.349 75.7814L137.571 73.5592M137.726 78.1578L139.948 75.9357M137.726 78.1578L133.559 82.3243M133.559 82.3243L135.935 84.7008M133.559 82.3243L131.183 79.9479M135.935 84.7008C136.651 83.9849 137.812 83.9849 138.528 84.7008C139.244 85.4167 139.244 86.5774 138.528 87.2933C137.812 88.0092 136.651 88.0092 135.935 87.2933C135.22 86.5774 135.22 85.4167 135.935 84.7008ZM131.183 79.9479C131.898 79.232 131.898 78.0713 131.183 77.3554C130.467 76.6395 129.306 76.6395 128.59 77.3554C127.874 78.0713 127.874 79.232 128.59 79.9479C129.306 80.6638 130.467 80.6638 131.183 79.9479ZM119.757 91.3734L122.134 89.0653M119.757 91.3734L122.065 93.7498M119.757 91.3734L124.373 96.1263M122.134 89.0653L115.324 82.3243M111.158 78.1578L113.534 75.7814L111.312 73.5592M111.158 78.1578L108.781 80.5343L106.559 78.3121M111.158 78.1578L108.936 75.9357M111.158 78.1578L115.324 82.3243M115.324 82.3243L117.701 79.9479M115.324 82.3243L112.948 84.7008M117.701 79.9479C116.985 79.232 116.985 78.0713 117.701 77.3554C118.417 76.6395 119.577 76.6395 120.293 77.3554C121.009 78.0713 121.009 79.232 120.293 79.9479C119.577 80.6638 118.417 80.6638 117.701 79.9479ZM112.948 84.7008C112.232 83.9849 111.071 83.9849 110.355 84.7008C110.125 84.931 109.969 85.2073 109.887 85.5M112.948 84.7008C113.664 85.4167 113.664 86.5774 112.948 87.2933C112.773 87.4683 112.571 87.6006 112.356 87.6901M124.373 96.1263L122.065 93.7498M124.373 96.1263L126.75 93.8182M122.065 93.7498L118.399 97.4529M126.75 93.8182L132.779 99.7872M175.637 78.1578L178.014 80.5343L180.236 78.3121M175.637 78.1578L173.261 75.7814L175.483 73.5592M175.637 78.1578L177.859 75.9357M175.637 78.1578L171.471 82.3243M171.471 82.3243L173.847 84.7008M171.471 82.3243L169.094 79.9479M171.471 82.3243L167.725 86.1078M173.847 84.7008C174.563 83.9849 175.724 83.9849 176.44 84.7008C177.156 85.4167 177.156 86.5774 176.44 87.2933C175.724 88.0092 174.563 88.0092 173.847 87.2933C173.131 86.5774 173.131 85.4167 173.847 84.7008ZM169.094 79.9479C169.81 79.232 169.81 78.0713 169.094 77.3554C168.378 76.6395 167.218 76.6395 166.502 77.3554C165.786 78.0713 165.786 79.232 166.502 79.9479C167.218 80.6638 168.378 80.6638 169.094 79.9479ZM144.471 78.3121L145.691 79.5328M146.847 75.9357L147.542 76.6302M204.95 91.5101L202.642 89.1337M204.95 91.5101L202.573 93.8182M204.95 91.5101L200.197 96.1263M204.95 91.5101L200.334 86.7572M200.334 86.7572L202.642 89.1337M200.334 86.7572L197.957 89.0653M200.334 86.7572L195.581 91.3734M202.642 89.1337L209.383 82.3243M213.549 78.1578L211.173 75.7814L212.133 74.8208M213.549 78.1578L209.383 82.3243M213.549 78.1578L213.965 77.7418M213.549 78.1578L215.364 79.973M209.383 82.3243L211.759 84.7008M209.383 82.3243L207.006 79.9479M211.759 84.7008C212.475 83.9849 213.636 83.9849 214.352 84.7008C215.067 85.4167 215.067 86.5774 214.352 87.2933C213.636 88.0092 212.475 88.0092 211.759 87.2933C211.043 86.5774 211.043 85.4167 211.759 84.7008ZM207.006 79.9479C207.722 79.232 207.722 78.0713 207.006 77.3554C206.29 76.6395 205.13 76.6395 204.414 77.3554C203.698 78.0713 203.698 79.232 204.414 79.9479C205.13 80.6638 206.29 80.6638 207.006 79.9479ZM195.581 91.3734L197.957 89.0653M195.581 91.3734L197.889 93.7498M195.581 91.3734L200.197 96.1263M197.957 89.0653L191.148 82.3243M186.981 78.1578L189.358 75.7814L187.136 73.5592M186.981 78.1578L184.605 80.5343L182.383 78.3121M186.981 78.1578L184.759 75.9357M186.981 78.1578L191.148 82.3243M191.148 82.3243L193.524 79.9479M191.148 82.3243L188.771 84.7008M193.524 79.9479C192.808 79.232 192.808 78.0713 193.524 77.3554C194.24 76.6395 195.401 76.6395 196.117 77.3554C196.833 78.0713 196.833 79.232 196.117 79.9479C195.401 80.6638 194.24 80.6638 193.524 79.9479ZM188.771 84.7008C188.055 83.9849 186.895 83.9849 186.179 84.7008C185.463 85.4167 185.463 86.5774 186.179 87.2933C186.895 88.0092 188.055 88.0092 188.771 87.2933C189.487 86.5774 189.487 85.4167 188.771 84.7008ZM200.197 96.1263L197.889 93.7498M200.197 96.1263L202.573 93.8182M197.889 93.7498L191.148 100.559M186.981 104.726L184.605 102.349L182.383 104.571M186.981 104.726L191.148 100.559M186.981 104.726L188.756 106.5M186.981 104.726L185.207 106.5M191.148 100.559L188.771 98.1827M191.148 100.559L193.524 102.936M188.771 98.1827C188.055 98.8986 186.895 98.8986 186.179 98.1827C185.463 97.4668 185.463 96.3061 186.179 95.5903C186.895 94.8744 188.055 94.8744 188.771 95.5903C189.487 96.3061 189.487 97.4668 188.771 98.1827ZM193.524 102.936C192.808 103.652 192.808 104.812 193.524 105.528C194.24 106.244 195.401 106.244 196.117 105.528C196.833 104.812 196.833 103.652 196.117 102.936C195.401 102.22 194.24 102.22 193.524 102.936ZM202.573 93.8182L209.383 100.559M213.549 104.726L215.926 102.349L218.148 104.571M213.549 104.726L209.383 100.559M213.549 104.726L215.323 106.5M213.549 104.726L211.775 106.5M209.383 100.559L207.006 102.936M209.383 100.559L211.759 98.1828M207.006 102.936C207.722 103.652 207.722 104.812 207.006 105.528C206.29 106.244 205.13 106.244 204.414 105.528C203.698 104.812 203.698 103.652 204.414 102.936C205.13 102.22 206.29 102.22 207.006 102.936ZM211.759 98.1828C212.475 98.8986 213.636 98.8986 214.352 98.1828C215.067 97.4669 215.067 96.3062 214.352 95.5903C213.636 94.8744 212.475 94.8744 211.759 95.5903C211.043 96.3061 211.043 97.4669 211.759 98.1828ZM224.893 104.726L222.517 102.349L220.295 104.571M224.893 104.726L223.119 106.5M224.893 104.726L226.667 106.5M224.893 104.726L228.577 101.042M226.683 98.1827C225.967 98.8986 224.807 98.8986 224.091 98.1827C223.375 97.4668 223.375 96.3061 224.091 95.5903C224.315 95.3657 224.584 95.2116 224.868 95.1279M226.683 98.1827C226.704 98.1619 226.724 98.1406 226.744 98.119M226.683 98.1827L226.953 98.4529M215.323 106.5H223.119M215.323 106.5H211.775M223.119 106.5H226.667M226.667 106.5H232L228.577 101.042M211.775 106.5H188.756M188.756 106.5H185.207M185.207 106.5H182L176.278 98.3264M176.278 98.3264C176.334 98.2822 176.388 98.2343 176.44 98.1828C177.156 97.4669 177.156 96.3062 176.44 95.5903C175.826 94.9767 174.886 94.889 174.179 95.3272M176.278 98.3264L174.179 95.3272M174.179 95.3272L167.725 86.1078M167.725 86.1078L154 66.5L147.542 76.6302M147.542 76.6302L145.691 79.5328M145.691 79.5328L132.779 99.7872M132.779 99.7872L130.914 102.713M130.914 102.713C130.201 102.23 129.222 102.304 128.59 102.936C127.874 103.652 127.874 104.812 128.59 105.528C128.699 105.637 128.817 105.729 128.943 105.804M130.914 102.713L128.943 105.804M128.943 105.804L128.5 106.5H124L118.399 97.4529M118.399 97.4529L112.356 87.6901M112.356 87.6901L111 85.5H109.887M109.887 85.5H103L98.9505 79.021M98.9505 79.021L92.1527 68.1446M92.1527 68.1446L90.4123 65.3599M90.4123 65.3599L85.4999 57.5L81.1502 64.488M81.1502 64.488L79.4697 67.1878M79.4697 67.1878L74.6967 74.8559M74.6967 74.8559L72.8733 77.7853M72.8733 77.7853L71.645 79.7586M71.645 79.7586L62.0523 95.1698M62.0523 95.1698L60.1524 98.2222M60.1524 98.2222L58.3285 101.152M58.3285 101.152L54.9999 106.5H37.1083M33.5596 106.5H37.1083M33.5596 106.5H25.7643M22.2156 106.5H0.999878L3.49206 102.463M22.2156 106.5H25.7643M3.49206 102.463L8.66021 94.0903M8.66021 94.0903L12.2493 88.2759M12.2493 88.2759L17.3172 80.066M17.3172 80.066L17.9381 79.0601M17.9381 79.0601L23.108 70.6848M23.108 70.6848L24.9221 67.746M24.9221 67.746L25.9999 66H27.929M27.929 66H31.3949M31.3949 66H34.5201M34.5201 66H41.368M41.368 66H43.9999L44.5487 65.1082M41.368 66C41.2676 66.5691 41.4372 67.1766 41.8769 67.6163C42.5928 68.3322 43.7535 68.3322 44.4694 67.6163C45.1578 66.9279 45.1842 65.8282 44.5487 65.1082M44.5487 65.1082L49.1498 57.6314M49.1498 57.6314L52.2797 52.5453M52.2797 52.5453L56.5439 45.616M56.5439 45.616L57.4562 44.1334M57.4562 44.1334L60.6307 38.9749M60.6307 38.9749L71.989 20.5177M71.989 20.5177C72.0743 20.2429 72.2258 19.9842 72.4434 19.7666C72.45 19.7599 72.4566 19.7534 72.4633 19.7469M71.989 20.5177L72.4633 19.7469M72.4633 19.7469L79.4025 8.47079M79.4025 8.47079L81.8493 4.49472M81.8493 4.49472C82.042 4.40639 82.2225 4.28287 82.3812 4.12418C82.7565 3.74891 82.9351 3.25142 82.9169 2.75984M81.8493 4.49472L82.9169 2.75984M97.3602 4.78755L94.9999 0.999999H92H83.9999L82.9246 2.74736L82.9169 2.75984M97.3602 4.78755L99.5862 8.35948M99.5862 8.35948L101.066 10.7336M101.066 10.7336L111.916 28.144M111.916 28.144L116.5 35.5L119.939 29.9811M119.939 29.9811C120.065 29.9054 120.184 29.8132 120.293 29.7044C120.612 29.3856 120.789 28.9786 120.824 28.5619M119.939 29.9811L120.824 28.5619M120.824 28.5619L127.157 18.3982M127.157 18.3982L128.42 16.372M128.42 16.372L129.126 15.6864L128.956 15.5117M128.42 16.372L128.956 15.5117M128.956 15.5117L134.183 7.12465M134.183 7.12465L136.247 3.81247M136.247 3.81247L137.382 1.99093M137.382 1.99093L138 0.999999H139.06M139.06 0.999999H147.735M147.735 0.999999H156L156.113 1.17575M156.113 1.17575L158.086 4.23328M158.086 4.23328L166.077 16.6196M166.077 16.6196L171.034 24.3034M171.034 24.3034L171.375 24.8314M171.375 24.8314L174.643 29.8965M174.643 29.8965L185.841 47.2535M185.841 47.2535L186 47.5H189.213M185.841 47.2535C185.49 47.942 185.603 48.8056 186.179 49.3814C186.895 50.0973 188.055 50.0973 188.771 49.3814C189.28 48.8725 189.427 48.1389 189.213 47.5M189.213 47.5H194.267M194.267 47.5H195L196.2 49.4144M194.267 47.5L196.2 49.4144M196.2 49.4144L197.543 51.5555M197.543 51.5555L201.143 57.2956M201.143 57.2956L205.653 64.4877M205.653 64.4877C205.203 64.5016 204.757 64.6803 204.414 65.0238C203.698 65.7397 203.698 66.9004 204.414 67.6163C205.13 68.3322 206.29 68.3322 207.006 67.6163C207.141 67.4812 207.251 67.3303 207.335 67.1695M205.653 64.4877L207.335 67.1695M207.335 67.1695L212.133 74.8208M212.133 74.8208L213.965 77.7418M213.965 77.7418L215.364 79.973M215.364 79.973L224.868 95.1279M224.868 95.1279L226.744 98.119M226.744 98.119L226.953 98.4529M226.953 98.4529L228.577 101.042" stroke="#EAEA00"/>
</svg>
